HIERARCHY
ROOT Hips
{
    OFFSET 0.000000 0.000000 0.000000
    CHANNELS 6 Xposition Yposition Zposition Zrotation Xrotation Yrotation
    JOINT Spine
    {
        OFFSET -0.000000 14.517291 0.000000
        CHANNELS 3 Zrotation Xrotation Yrotation
        JOINT Spine1
        {
            OFFSET -0.000000 37.558300 0.000000
            CHANNELS 3 Zrotation Xrotation Yrotation
            JOINT Neck
            {
                OFFSET -0.000000 37.404057 3.400369
                CHANNELS 3 Zrotation Xrotation Yrotation
                JOINT Head
                {
                    OFFSET -0.000000 24.785618 -3.540803
                    CHANNELS 3 Zrotation Xrotation Yrotation
                    End Site
                    {
                        OFFSET -0.000000 35.408028 0.000000
                    }
                }
            }
            JOINT LeftShoulder
            {
                OFFSET 6.992933 33.973492 -0.192664
                CHANNELS 3 Zrotation Xrotation Yrotation
                JOINT LeftArm
                {
                    OFFSET 21.527611 0.000000 0.000000
                    CHANNELS 3 Zrotation Xrotation Yrotation
                    JOINT LeftForeArm
                    {
                        OFFSET 56.353916 0.000000 0.000000
                        CHANNELS 3 Zrotation Xrotation Yrotation
                        JOINT LeftHand
                        {
                            OFFSET 47.774071 0.000000 0.000000
                            CHANNELS 3 Zrotation Xrotation Yrotation
                            End Site
                            {
                                OFFSET 26.556021 0.000000 0.000000
                            }
                        }
                    }
                }
            }
            JOINT RightShoulder
            {
                OFFSET -7.065357 33.973492 -0.192664
                CHANNELS 3 Zrotation Xrotation Yrotation
                JOINT RightArm
                {
                    OFFSET -21.527611 0.000000 0.000000
                    CHANNELS 3 Zrotation Xrotation Yrotation
                    JOINT RightForeArm
                    {
                        OFFSET -56.353916 0.000000 0.000000
                        CHANNELS 3 Zrotation Xrotation Yrotation
                        JOINT RightHand
                        {
                            OFFSET -47.774071 0.000000 0.000000
                            CHANNELS 3 Zrotation Xrotation Yrotation
                            End Site
                            {
                                OFFSET -26.556021 0.000000 0.000000
                            }
                        }
                    }
                }
            }
        }
    }
    JOINT LeftUpLeg
    {
        OFFSET 17.704014 0.000000 0.000000
        CHANNELS 3 Zrotation Xrotation Yrotation
        JOINT LeftLeg
        {
            OFFSET -0.000000 -81.181816 0.000000
            CHANNELS 3 Zrotation Xrotation Yrotation
            JOINT LeftFoot
            {
                OFFSET -0.000000 -62.821102 0.000000
                CHANNELS 3 Zrotation Xrotation Yrotation
                JOINT LeftToeBase
                {
                    OFFSET -0.000000 -11.507608 26.556021
                    CHANNELS 3 Zrotation Xrotation Yrotation
                    End Site
                    {
                        OFFSET -0.000000 0.000000 7.081605
                    }
                }
            }
        }
    }
    JOINT RightUpLeg
    {
        OFFSET -17.704014 0.000000 0.000000
        CHANNELS 3 Zrotation Xrotation Yrotation
        JOINT RightLeg
        {
            OFFSET -0.000000 -81.181816 0.000000
            CHANNELS 3 Zrotation Xrotation Yrotation
            JOINT RightFoot
            {
                OFFSET -0.000000 -62.821102 0.000000
                CHANNELS 3 Zrotation Xrotation Yrotation
                JOINT RightToeBase
                {
                    OFFSET -0.000000 -11.507608 26.556021
                    CHANNELS 3 Zrotation Xrotation Yrotation
                    End Site
                    {
                        OFFSET -0.000000 0.000000 7.081605
                    }
                }
            }
        }
    }
}
MOTION
Frames:    11
Frame Time:    0.008333
11.669315    154.738190    -121.274590    0.192926    -6.528406    41.532043    -1.624672    -3.196513    -3.030411    -6.024258    8.719019    -0.535455    1.230127    -3.075320    -18.152153    16.417154    6.586879    -17.807451    14.688417    5.693379    -39.748936    -22.345644    26.254210    -95.797447    -3.200347    -45.321835    -82.860352    -6.038918    -46.910221    -10.101855    -14.855514    -7.342286    1.854028    32.287060    -21.629448    87.733765    3.330855    -5.531475    18.039530    -2.831195    -6.812977    30.049410    19.005590    -2.377876    1.465649    -14.544073    37.006462    -18.020998    4.711768    -28.212482    43.438538    0.000000    0.000000    0.000000    -16.503160    -16.474855    -12.383342    7.897041    20.025225    -15.054353    4.551483    11.634812    -13.478075    0.000000    0.000000    0.000000    
11.681868    154.742615    -121.290054    0.189612    -6.515047    41.485012    -1.631463    -3.219601    -3.046794    -6.050082    8.746759    -0.537323    1.265151    -3.121860    -18.120867    16.398308    6.603656    -17.785213    14.726743    5.671131    -39.787228    -22.270863    26.197903    -95.882889    -3.133793    -45.295231    -82.723969    -6.182116    -46.823944    -10.291579    -14.832365    -7.316770    1.846918    32.281765    -21.542963    87.777191    3.239633    -5.678738    18.048790    -2.815435    -6.939795    29.982515    18.988783    -2.366979    1.508993    -14.536563    36.999390    -18.038546    4.716037    -28.218246    43.459427    0.000000    0.000000    0.000000    -16.502140    -16.486223    -12.360817    7.898023    19.981932    -15.073318    4.545525    11.665242    -13.456179    0.000000    0.000000    0.000000    
11.695121    154.745575    -121.305916    0.191209    -6.501033    41.445152    -1.644610    -3.239412    -3.065680    -6.059949    8.773817    -0.541204    1.251130    -3.160496    -18.090580    16.414394    6.627086    -17.753370    14.728180    5.648052    -39.838654    -22.180464    26.155243    -95.926491    -3.078421    -45.257374    -82.632736    -6.060811    -46.758160    -10.293997    -14.821772    -7.270719    1.839066    32.335911    -21.505459    87.852898    3.203447    -5.771767    18.057383    -2.843544    -7.033310    29.933538    18.969099    -2.352973    1.553730    -14.531633    36.981728    -18.002586    4.690689    -28.219584    43.423874    0.000000    0.000000    0.000000    -16.504070    -16.497396    -12.340349    7.878145    19.956343    -15.047902    4.551617    11.677053    -13.428777    0.000000    0.000000    0.000000    
11.710427    154.747589    -121.317947    0.190308    -6.491210    41.417332    -1.649210    -3.263119    -3.095601    -6.081858    8.800156    -0.547935    1.221641    -3.205875    -18.111242    16.442188    6.717796    -17.781351    14.740246    5.632311    -39.866314    -22.117609    26.122089    -95.974510    -3.087666    -45.255978    -82.573471    -6.016365    -46.765591    -10.227667    -14.790779    -7.232270    1.824134    32.394142    -21.469557    87.935539    3.185254    -5.827141    18.057487    -2.862835    -7.089952    29.902493    18.954033    -2.343416    1.578258    -14.528494    36.973373    -17.977959    4.704023    -28.207001    43.408993    0.000000    0.000000    0.000000    -16.508846    -16.498617    -12.316308    7.885602    19.921341    -15.035427    4.548439    11.689342    -13.446585    0.000000    0.000000    0.000000    
11.724475    154.750473    -121.325752    0.191928    -6.489264    41.386261    -1.658108    -3.284292    -3.119688    -6.094766    8.834120    -0.552961    1.266126    -3.236340    -18.074604    16.380411    6.706089    -17.754261    14.736394    5.617533    -39.909969    -22.045704    26.112898    -96.010559    -3.111414    -45.331928    -82.550537    -5.890429    -46.868324    -10.016458    -14.771871    -7.174263    1.815683    32.512341    -21.489635    88.024750    3.215956    -5.820722    18.065475    -2.844657    -7.082979    29.871145    18.945473    -2.320320    1.619200    -14.511153    36.961277    -17.993467    4.696417    -28.209562    43.398537    0.000000    0.000000    0.000000    -16.505856    -16.498133    -12.285494    7.885849    19.899576    -15.013496    4.549594    11.695784    -13.471239    0.000000    0.000000    0.000000    
11.739137    154.749298    -121.336487    0.199028    -6.481262    41.358276    -1.674939    -3.293546    -3.147269    -6.101657    8.843210    -0.560924    1.266157    -3.239813    -18.074305    16.361967    6.712473    -17.756363    14.740794    5.612090    -39.951931    -22.076244    26.114784    -96.000458    -3.138210    -45.333099    -82.538071    -5.773396    -46.897930    -9.849295    -14.735156    -7.144411    1.772953    32.571117    -21.444403    88.119202    3.203712    -5.802060    18.051394    -2.840423    -7.060247    29.845425    18.930950    -2.300900    1.646122    -14.514566    36.945366    -17.985720    4.692880    -28.216583    43.384121    0.000000    0.000000    0.000000    -16.510180    -16.501001    -12.266005    7.877669    19.876902    -15.009655    4.532851    11.714285    -13.462450    0.000000    0.000000    0.000000    
11.758243    154.746353    -121.342041    0.210166    -6.485757    41.335976    -1.691076    -3.292707    -3.180180    -6.089880    8.845825    -0.572559    1.209955    -3.239085    -18.087059    16.388586    6.753522    -17.763546    14.728207    5.625398    -39.987473    -22.097458    26.123554    -95.966866    -3.158086    -45.339912    -82.565338    -5.560912    -46.937355    -9.626127    -14.729458    -7.103640    1.751276    32.596329    -21.409313    88.170311    3.144397    -5.720226    18.050419    -2.713084    -6.934709    29.813776    18.921766    -2.275564    1.666815    -14.511784    36.948425    -18.011829    4.710242    -28.218821    43.402382    0.000000    0.000000    0.000000    -16.513430    -16.490232    -12.232181    7.878546    19.862787    -15.014439    4.548646    11.719708    -13.479374    0.000000    0.000000    0.000000    
11.773139    154.745209    -121.354744    0.216653    -6.481635    41.316330    -1.715010    -3.291833    -3.217588    -6.071842    8.840855    -0.586402    1.270791    -3.271961    -18.063419    16.236095    6.763996    -17.763437    14.724292    5.638644    -40.013687    -22.172411    26.133984    -95.912186    -3.163884    -45.320648    -82.585320    -5.387978    -46.937862    -9.469262    -14.717065    -7.077098    1.717455    32.613052    -21.366817    88.214615    3.125476    -5.684155    18.056524    -2.718170    -6.897214    29.812651    18.908701    -2.265054    1.686775    -14.512651    36.948559    -18.029497    4.712635    -28.221817    43.412010    0.000000    0.000000    0.000000    -16.527905    -16.510134    -12.205800    7.893746    19.898104    -14.791303    4.589656    11.680045    -13.718923    0.000000    0.000000    0.000000    
11.791487    154.738586    -121.359955    0.227352    -6.489127    41.293243    -1.732559    -3.284593    -3.248423    -6.042162    8.837741    -0.599026    1.240077    -3.262579    -18.074694    16.195467    6.768788    -17.773546    14.695198    5.656425    -40.037857    -22.253197    26.149998    -95.822830    -3.116392    -45.275833    -82.599648    -5.202970    -46.881424    -9.318403    -14.727086    -7.057717    1.690733    32.589546    -21.323933    88.223824    3.102148    -5.672910    18.062935    -2.727857    -6.885822    29.843672    18.904503    -2.240657    1.704591    -14.527096    36.954460    -18.030903    4.701827    -28.249296    43.427486    0.000000    0.000000    0.000000    -16.522957    -16.484436    -12.173139    7.883362    19.851135    -15.010324    4.549475    11.710730    -13.481091    0.000000    0.000000    0.000000    
11.808549    154.731659    -121.371315    0.237505    -6.489141    41.272953    -1.750799    -3.277458    -3.278590    -6.018329    8.824395    -0.611487    1.254068    -3.239297    -18.088924    16.094574    6.751124    -17.796179    14.678067    5.687313    -40.065575    -22.360046    26.153233    -95.716347    -3.033040    -45.209599    -82.595802    -5.001852    -46.781631    -9.200974    -14.730041    -7.024119    1.659006    32.537830    -21.274324    88.221916    3.051189    -5.711986    18.091827    -2.742756    -6.921027    29.824566    18.892076    -2.228427    1.719960    -14.534370    36.960041    -18.018068    4.731251    -28.238453    43.429455    0.000000    0.000000    0.000000    -16.539288    -16.509724    -12.155970    7.889846    19.910446    -14.787321    4.597284    11.665503    -13.715071    0.000000    0.000000    0.000000    
11.824624    154.719467    -121.382629    0.249666    -6.481949    41.247387    -1.769820    -3.272538    -3.298227    -6.001850    8.807703    -0.620025    1.245832    -3.208506    -18.103609    16.031488    6.729843    -17.811737    14.670396    5.718562    -40.085655    -22.474134    26.153168    -95.614983    -2.902304    -45.128994    -82.554329    -4.886214    -46.630047    -9.178697    -14.738441    -7.007647    1.633027    32.517872    -21.242929    88.203003    3.035965    -5.719267    18.121056    -2.748609    -6.927399    29.791296    18.870190    -2.221436    1.734777    -14.539492    36.978897    -17.991282    4.740705    -28.256372    43.428413    0.000000    0.000000    0.000000    -16.561052    -16.521748    -12.123041    7.902411    19.925413    -14.781460    4.600302    11.652041    -13.709687    0.000000    0.000000    0.000000    
